<?xml version="1.0" standalone="no"?>
<!DOCTYPE svg PUBLIC "-//W3C//DTD SVG 20010904//EN"
 "http://www.w3.org/TR/2001/REC-SVG-20010904/DTD/svg10.dtd">
<svg version="1.0" xmlns="http://www.w3.org/2000/svg"
 width="521.000000pt" height="521.000000pt" viewBox="0 0 521.000000 521.000000"
 preserveAspectRatio="xMidYMid meet">
<metadata>
Created by potrace 1.11, written by Peter Selinger 2001-2013
</metadata>
<g transform="translate(0.000000,521.000000) scale(0.100000,-0.100000)"
fill="#000000" stroke="none">
<path d="M2075 4782 c-70 -24 -90 -41 -250 -199 -185 -182 -205 -194 -354
-204 -183 -12 -171 -14 -171 24 0 42 -36 103 -82 140 -37 30 -40 31 -207 40
l-170 10 -56 -27 c-63 -32 -98 -72 -124 -145 -10 -28 -20 -49 -23 -46 -3 3
-45 1 -94 -4 -90 -9 -206 -42 -229 -64 -6 -7 -26 -23 -44 -37 -45 -34 -116
-144 -135 -209 -14 -48 -16 -192 -13 -1305 2 -1223 2 -1252 22 -1307 27 -76
99 -166 171 -214 32 -22 64 -41 69 -42 6 -1 37 -9 70 -18 53 -13 316 -15 2135
-15 2241 0 2118 -3 2225 53 77 41 128 94 178 187 48 89 47 57 47 1366 0 1340
3 1270 -55 1384 -34 68 -123 146 -212 187 l-77 35 -546 3 -545 2 -60 27 c-48
23 -92 59 -227 194 -119 118 -180 171 -210 184 -39 15 -90 17 -513 17 -421 0
-475 -1 -520 -17z m1090 -350 c172 -170 230 -212 347 -253 l83 -29 526 0 525
0 55 -27 c40 -21 61 -40 84 -77 l30 -49 3 -1205 c3 -1364 7 -1279 -73 -1350
-27 -23 -63 -44 -90 -51 -62 -16 -4072 -16 -4147 0 -75 16 -141 84 -157 161
-8 38 -11 399 -9 1248 l3 1195 28 47 c18 31 44 57 75 75 l47 28 550 5 c534 5
552 6 607 27 106 40 180 94 339 250 l157 153 434 0 433 0 150 -148z"/>
<path d="M586 3913 c-36 -35 -38 -50 -34 -208 l3 -137 33 -29 32 -29 248 0
c273 0 286 3 314 60 23 45 26 253 4 304 -27 65 -32 66 -317 66 l-256 0 -27
-27z"/>
<path d="M2374 3925 c-389 -70 -715 -328 -874 -691 -116 -264 -126 -582 -29
-862 97 -276 317 -525 586 -661 260 -130 607 -156 882 -65 410 135 708 470
797 896 21 100 24 331 5 428 -96 495 -461 861 -950 954 -100 19 -315 20 -417
1z m414 -228 c23 -9 42 -13 42 -10 0 4 5 2 12 -5 7 -7 20 -12 30 -12 11 0 38
-9 60 -20 23 -11 47 -20 53 -20 6 0 58 -31 117 -70 164 -107 293 -264 359
-434 62 -160 72 -224 66 -391 -7 -183 -26 -258 -103 -403 -84 -162 -203 -289
-359 -383 -154 -94 -284 -129 -484 -132 -128 -2 -237 16 -303 50 -16 7 -28 11
-28 9 0 -10 -149 63 -197 95 -72 50 -83 59 -148 124 -206 205 -306 498 -269
786 20 156 50 243 132 384 54 94 182 227 286 298 104 71 258 130 371 142 33 4
62 9 64 11 12 11 260 -5 299 -19z"/>
<path d="M2469 3296 c-64 -14 -184 -73 -240 -117 -64 -51 -146 -183 -169 -273
-23 -90 -25 -141 -9 -235 24 -151 102 -268 236 -357 117 -77 308 -106 439 -65
172 52 290 163 361 337 25 61 28 81 27 174 -1 175 -56 302 -179 409 -33 29
-81 63 -106 76 -97 50 -262 73 -360 51z m245 -245 c111 -55 179 -163 179 -286
0 -87 -24 -145 -88 -214 -63 -67 -129 -95 -225 -96 -90 0 -163 30 -223 91
-159 160 -101 430 110 515 68 27 180 22 247 -10z"/>
<path d="M4442 3803 c-19 -28 -25 -62 -36 -243 -3 -41 -10 -100 -16 -130 -7
-30 -10 -73 -8 -95 3 -37 6 -40 35 -43 37 -4 53 18 58 80 4 63 18 65 59 9 48
-65 85 -91 130 -91 27 0 40 6 52 25 19 29 14 41 -24 48 -15 3 -51 29 -80 58
-49 51 -51 54 -34 72 9 11 42 36 72 56 41 27 56 43 58 64 4 31 -15 43 -53 33
-14 -4 -57 -36 -95 -73 -39 -36 -73 -63 -76 -61 -3 3 3 43 12 89 9 46 17 116
18 154 1 69 0 70 -25 73 -20 2 -32 -4 -47 -25z"/>
<path d="M4080 3755 c0 -8 -3 -15 -8 -15 -4 0 -15 -17 -25 -37 -24 -53 -89
-169 -107 -191 -43 -53 -91 -152 -88 -180 2 -22 8 -27 32 -27 24 0 35 9 63 50
19 27 40 50 48 51 7 1 45 9 83 18 93 21 95 21 109 -12 25 -55 71 -119 90 -124
30 -8 63 9 63 32 0 12 -13 38 -29 58 -34 45 -107 213 -130 302 -9 36 -20 71
-24 78 -12 18 -77 16 -77 -3z m40 -175 c0 -16 5 -30 10 -30 12 0 14 -37 3 -43
-5 -3 -30 -8 -56 -12 l-49 -8 32 62 c35 67 60 80 60 31z"/>
<path d="M2696 772 c-12 -3 -15 -7 -8 -11 6 -4 -9 -17 -36 -31 -72 -38 -152
-126 -152 -167 0 -10 11 -30 24 -45 22 -26 29 -28 103 -28 52 0 86 -5 98 -14
19 -14 19 -15 0 -51 -21 -38 -67 -85 -103 -104 -28 -15 -81 -14 -130 3 -43 15
-52 13 -52 -14 0 -46 101 -82 172 -61 120 36 227 178 188 250 -17 33 -70 51
-145 51 -62 0 -65 1 -65 24 0 29 65 89 127 118 33 14 54 17 93 12 49 -6 50 -6
50 19 0 14 -6 29 -12 34 -15 9 -125 20 -152 15z"/>
<path d="M3859 775 c0 0 -2 -16 -4 -35 -2 -19 -8 -55 -15 -80 -6 -25 -14 -57
-17 -72 -4 -23 -11 -28 -33 -28 -88 0 -181 -77 -217 -180 -18 -49 -17 -54 16
-89 35 -38 87 -42 144 -11 44 24 47 24 47 5 0 -19 55 -21 67 -2 4 6 11 41 15
77 11 99 24 167 48 255 12 44 25 98 27 120 l5 40 -41 0 c-23 0 -41 0 -42 0z
m-68 -338 c-6 -6 -11 -21 -11 -33 0 -24 -55 -78 -90 -89 -12 -4 -27 -1 -35 5
-46 38 30 157 114 180 23 6 26 4 29 -23 2 -16 -1 -34 -7 -40z"/>
<path d="M1918 729 c-11 -6 -18 -22 -18 -39 0 -16 -4 -32 -10 -35 -5 -3 -10
-19 -10 -35 0 -16 -4 -32 -10 -35 -5 -3 -10 -19 -10 -35 0 -16 -4 -32 -10 -35
-5 -3 -10 -19 -10 -35 0 -16 -4 -32 -10 -35 -5 -3 -10 -19 -10 -35 0 -16 -4
-32 -10 -35 -5 -3 -10 -31 -10 -61 0 -54 1 -55 27 -52 26 3 39 27 57 109 4 21
40 49 61 49 13 0 30 -53 35 -105 l5 -60 35 0 35 0 3 57 c2 42 -2 67 -18 97
-11 23 -25 41 -30 41 -21 0 -8 19 34 51 59 45 72 67 53 86 -16 17 -77 9 -77
-9 0 -15 -94 -101 -98 -89 -4 11 32 130 50 167 5 11 8 34 6 50 -3 32 -29 42
-60 23z"/>
<path d="M1590 717 c-27 -12 -150 -133 -150 -148 0 -12 -42 -73 -52 -77 -5 -2
-8 -12 -8 -23 0 -10 -4 -19 -10 -19 -5 0 -10 -9 -10 -19 0 -11 -4 -23 -10 -26
-5 -3 -10 -21 -10 -39 0 -17 -5 -37 -12 -44 -20 -20 10 -62 43 -62 21 0 29 7
38 31 6 18 11 45 11 61 0 49 26 88 59 88 16 0 61 7 100 16 72 16 95 14 73 -8
-7 -7 -12 -24 -12 -38 0 -14 -4 -30 -8 -35 -15 -17 -35 -92 -28 -104 4 -6 20
-11 36 -11 24 0 32 7 46 38 28 64 32 75 44 137 7 33 17 75 22 92 5 18 8 59 7
90 -2 49 -7 62 -31 86 -22 21 -37 27 -70 26 -24 0 -54 -5 -68 -12z m88 -134
c-3 -45 -5 -47 -38 -54 -79 -15 -140 -19 -140 -10 0 20 87 116 120 133 32 17
34 17 47 -2 9 -12 13 -39 11 -67z"/>
<path d="M4039 679 l-21 -21 21 -21 c17 -17 25 -19 48 -11 18 6 29 18 31 33 6
43 -44 55 -79 20z"/>
<path d="M2972 678 c-6 -6 -12 -31 -12 -54 0 -24 -4 -46 -10 -49 -5 -3 -10
-15 -10 -26 0 -14 -7 -19 -29 -19 -29 0 -42 -14 -34 -37 3 -7 13 -13 24 -13
20 0 27 -34 9 -45 -5 -3 -10 -31 -10 -62 0 -45 4 -59 23 -75 50 -45 106 -46
162 -3 38 29 82 112 68 126 -13 13 -53 2 -53 -14 0 -18 -82 -88 -99 -85 -19 4
-28 81 -13 112 6 12 12 28 15 36 3 10 28 21 70 29 77 15 103 31 93 56 -5 14
-13 16 -41 11 -118 -21 -108 -21 -99 5 5 13 9 44 9 69 0 41 -2 45 -25 48 -14
2 -31 -3 -38 -10z"/>
<path d="M3453 563 c-7 -15 -13 -42 -13 -59 0 -18 -4 -36 -10 -39 -5 -3 -10
-17 -10 -31 0 -13 -4 -24 -10 -24 -5 0 -10 -6 -10 -14 0 -7 -19 -33 -41 -56
-38 -39 -43 -42 -55 -26 -14 20 -10 58 12 134 9 29 17 67 18 85 1 30 -1 32
-36 35 -35 3 -38 1 -38 -22 0 -14 -4 -28 -10 -31 -5 -3 -10 -21 -10 -40 0 -19
-4 -37 -10 -40 -16 -10 -12 -123 6 -150 34 -52 100 -51 157 3 26 25 27 25 27
4 0 -15 8 -24 25 -28 45 -11 55 0 55 66 0 57 10 115 31 187 13 43 -3 73 -39
73 -20 0 -30 -8 -39 -27z"/>
<path d="M4255 555 c-86 -46 -136 -119 -137 -200 -2 -81 23 -105 111 -105 82
0 164 77 196 185 13 41 13 50 -1 78 -27 53 -44 67 -84 67 -20 0 -58 -11 -85
-25z m94 -59 c27 -33 -26 -150 -81 -178 -40 -21 -61 -17 -75 15 -19 42 35 138
91 163 40 17 51 17 65 0z"/>
<path d="M4004 533 c-3 -10 -10 -27 -14 -38 -9 -21 -18 -59 -27 -112 -3 -18
-9 -33 -14 -33 -5 0 -9 -22 -9 -49 0 -49 9 -61 45 -61 13 0 18 13 45 110 7 25
16 54 20 65 11 25 21 73 23 105 2 21 -3 25 -31 28 -24 2 -34 -1 -38 -15z"/>
</g>
</svg>
